<svg id="visual" viewBox="0 0 900 600" width="900" height="600" xmlns="http://www.w3.org/2000/svg" xmlns:xlink="http://www.w3.org/1999/xlink" version="1.1"><rect x="0" y="0" width="900" height="600" fill="#013862"></rect><defs><linearGradient id="grad1_0" x1="33.3%" y1="0%" x2="100%" y2="100%"><stop offset="20%" stop-color="#013862" stop-opacity="1"></stop><stop offset="80%" stop-color="#013862" stop-opacity="1"></stop></linearGradient></defs><defs><linearGradient id="grad2_0" x1="0%" y1="0%" x2="66.7%" y2="100%"><stop offset="20%" stop-color="#013862" stop-opacity="1"></stop><stop offset="80%" stop-color="#013862" stop-opacity="1"></stop></linearGradient></defs><g transform="translate(900, 0)"><path d="M0 270.4C-47.1 263.2 -94.1 256 -135.2 234.2C-176.3 212.4 -211.4 176 -233 134.5C-254.5 93 -262.5 46.5 -270.4 0L0 0Z" fill="#FBAE3C"></path></g><g transform="translate(0, 600)"><path d="M0 -270.4C49.3 -264.5 98.5 -258.5 135.2 -234.2C171.9 -209.8 196.1 -167.1 216.5 -125C236.9 -82.9 253.7 -41.5 270.4 0L0 0Z" fill="#FBAE3C"></path></g></svg>